<svg width="18" height="27" viewBox="0 0 18 27" fill="none" xmlns="http://www.w3.org/2000/svg">
<path d="M2.896 27C2.344 27 1.864 26.796 1.456 26.388C1.048 25.98 0.844 25.5 0.844 24.948L0.844 2.772C0.844 2.22 1.048 1.74 1.456 1.332C1.864 0.923999 2.344 0.719999 2.896 0.719999L15.136 0.719999C15.688 0.719999 16.168 0.923999 16.576 1.332C16.984 1.74 17.188 2.22 17.188 2.772C17.188 3.324 16.984 3.804 16.576 4.212C16.168 4.596 15.688 4.788 15.136 4.788H6.208C5.992 4.788 5.884 4.896 5.884 5.112V10.908C5.884 11.124 5.992 11.232 6.208 11.232H14.524C15.076 11.232 15.532 11.424 15.892 11.808C16.276 12.192 16.468 12.648 16.468 13.176C16.468 13.704 16.276 14.16 15.892 14.544C15.532 14.904 15.076 15.084 14.524 15.084H6.208C5.992 15.084 5.884 15.192 5.884 15.408V22.608C5.884 22.824 5.992 22.932 6.208 22.932H15.136C15.688 22.932 16.168 23.136 16.576 23.544C16.984 23.928 17.188 24.396 17.188 24.948C17.188 25.5 16.984 25.98 16.576 26.388C16.168 26.796 15.688 27 15.136 27H2.896Z" fill="url(#paint0_linear)"/>
<defs>
<linearGradient id="paint0_linear" x1="11" y1="-13" x2="11" y2="16" gradientUnits="userSpaceOnUse">
<stop offset="0.598958" stop-color="#FF7C6C"/>
<stop offset="1" stop-color="#47BCE4"/>
</linearGradient>
</defs>
</svg>
