<svg width="140" height="28" viewBox="0 0 140 28" fill="none" xmlns="http://www.w3.org/2000/svg">
<path d="M16.8066 16.1543H7.10352V22.2539H18.5645V27H0.933594V1.40625H18.5996V6.16992H7.10352V11.5664H16.8066V16.1543ZM28.4961 22.7812C29.3281 22.7812 29.9727 22.5586 30.4297 22.1133C30.8867 21.6562 31.1094 21.0234 31.0977 20.2148H36.6523C36.6523 22.3008 35.9023 24.0117 34.4023 25.3477C32.9141 26.6836 30.9922 27.3516 28.6367 27.3516C25.8711 27.3516 23.6914 26.4844 22.0977 24.75C20.5039 23.0156 19.707 20.6133 19.707 17.543V17.2969C19.707 15.375 20.0586 13.6816 20.7617 12.2168C21.4766 10.7402 22.502 9.60938 23.8379 8.82422C25.1738 8.02734 26.7559 7.62891 28.584 7.62891C31.0566 7.62891 33.0195 8.31445 34.4727 9.68555C35.9258 11.0566 36.6523 12.9141 36.6523 15.2578H31.0977C31.0977 14.2734 30.8574 13.5176 30.377 12.9902C29.8965 12.4629 29.252 12.1992 28.4434 12.1992C26.9082 12.1992 26.0117 13.1777 25.7539 15.1348C25.6719 15.7559 25.6309 16.6113 25.6309 17.7012C25.6309 19.6113 25.8594 20.9355 26.3164 21.6738C26.7734 22.4121 27.5 22.7812 28.4961 22.7812ZM38.4102 17.3145C38.4102 15.416 38.7793 13.7285 39.5176 12.252C40.2559 10.7637 41.3164 9.62109 42.6992 8.82422C44.082 8.02734 45.7051 7.62891 47.5684 7.62891C50.416 7.62891 52.6602 8.51367 54.3008 10.2832C55.9414 12.041 56.7617 14.4375 56.7617 17.4727V17.6836C56.7617 20.6484 55.9355 23.0039 54.2832 24.75C52.6426 26.4844 50.416 27.3516 47.6035 27.3516C44.8965 27.3516 42.7227 26.543 41.082 24.9258C39.4414 23.2969 38.5566 21.0938 38.4277 18.3164L38.4102 17.3145ZM44.334 17.6836C44.334 19.4414 44.6094 20.7305 45.1602 21.5508C45.7109 22.3711 46.5254 22.7812 47.6035 22.7812C49.7129 22.7812 50.791 21.1582 50.8379 17.9121V17.3145C50.8379 13.9043 49.748 12.1992 47.5684 12.1992C45.5879 12.1992 44.5156 13.6699 44.3516 16.6113L44.334 17.6836Z" fill="#FF7C6C"/>
<path d="M69.5762 20.0391L74.6738 1.40625H81.5645L72.9512 27H66.2012L57.6582 1.40625H64.4961L69.5762 20.0391ZM89.4219 27H83.4805V7.98047H89.4219V27ZM83.1289 3.07617C83.1289 2.23242 83.4336 1.54102 84.043 1.00195C84.6523 0.462891 85.4434 0.193359 86.416 0.193359C87.3887 0.193359 88.1797 0.462891 88.7891 1.00195C89.3984 1.54102 89.7031 2.23242 89.7031 3.07617C89.7031 3.91992 89.3984 4.61133 88.7891 5.15039C88.1797 5.68945 87.3887 5.95898 86.416 5.95898C85.4434 5.95898 84.6523 5.68945 84.043 5.15039C83.4336 4.61133 83.1289 3.91992 83.1289 3.07617ZM99.3359 27H93.3945V0H99.3359V27ZM109.25 27H103.309V0H109.25V27ZM122.117 27.3516C119.199 27.3516 116.838 26.4844 115.033 24.75C113.229 23.0039 112.326 20.7363 112.326 17.9473V17.4551C112.326 15.5098 112.684 13.793 113.398 12.3047C114.125 10.8164 115.18 9.66797 116.562 8.85938C117.945 8.03906 119.586 7.62891 121.484 7.62891C124.156 7.62891 126.266 8.46094 127.812 10.125C129.359 11.7773 130.133 14.0859 130.133 17.0508V19.3535H118.355C118.566 20.4199 119.029 21.2578 119.744 21.8672C120.459 22.4766 121.385 22.7812 122.521 22.7812C124.396 22.7812 125.861 22.125 126.916 20.8125L129.623 24.0117C128.885 25.0312 127.836 25.8457 126.477 26.4551C125.129 27.0527 123.676 27.3516 122.117 27.3516ZM121.449 12.1992C119.715 12.1992 118.684 13.3477 118.355 15.6445H124.332V15.1875C124.355 14.2383 124.115 13.5059 123.611 12.9902C123.107 12.4629 122.387 12.1992 121.449 12.1992ZM136.197 21.252C137.135 21.252 137.914 21.5332 138.535 22.0957C139.156 22.6465 139.467 23.3555 139.467 24.2227C139.467 25.0898 139.156 25.8047 138.535 26.3672C137.914 26.918 137.135 27.1934 136.197 27.1934C135.248 27.1934 134.463 26.9121 133.842 26.3496C133.232 25.7871 132.928 25.0781 132.928 24.2227C132.928 23.3672 133.232 22.6582 133.842 22.0957C134.463 21.5332 135.248 21.252 136.197 21.252Z" fill="#47BCE4"/>
</svg>
